HIERARCHY
ROOT joint_Root
{
	OFFSET 0.0 0.0 0.0
	CHANNELS 6 Xposition Yposition Zposition Zrotation Xrotation Yrotation 
	JOINT Hips
	{
		OFFSET 4.5925 91.4895 -427.239
		CHANNELS 6 Xposition Yposition Zposition Zrotation Xrotation Yrotation 
		JOINT Spine
		{
			OFFSET 15.7357 0.0 0.0
			CHANNELS 6 Xposition Yposition Zposition Zrotation Xrotation Yrotation 
			JOINT Chest
			{
				OFFSET 8.98455 -0.406207 0.0
				CHANNELS 6 Xposition Yposition Zposition Zrotation Xrotation Yrotation 
				JOINT Neck
				{
					OFFSET 16.3773 0.0 0.0
					CHANNELS 6 Xposition Yposition Zposition Zrotation Xrotation Yrotation 
					JOINT Head
					{
						OFFSET 6.45672 0.0 0.0
						CHANNELS 6 Xposition Yposition Zposition Zrotation Xrotation Yrotation 
						End Site
						{
							OFFSET 0.0 0.0 0.0
						}
					}
				}
				JOINT Shoulder_L
				{
					OFFSET 12.9942 -0.242716 4.98039
					CHANNELS 6 Xposition Yposition Zposition Zrotation Xrotation Yrotation 
					JOINT UpperArm_L
					{
						OFFSET 5.34809 0.0 0.0
						CHANNELS 6 Xposition Yposition Zposition Zrotation Xrotation Yrotation 
						JOINT LowerArm_L
						{
							OFFSET 24.3286 1.87007e-05 0.0
							CHANNELS 6 Xposition Yposition Zposition Zrotation Xrotation Yrotation 
							JOINT Hand_L
							{
								OFFSET 22.2916 0.0 0.0
								CHANNELS 6 Xposition Yposition Zposition Zrotation Xrotation Yrotation 
								End Site
								{
									OFFSET 0.0 0.0 0.0
								}
							}
						}
					}
				}
				JOINT Shoulder_R
				{
					OFFSET 12.9945 -0.242716 -4.98039
					CHANNELS 6 Xposition Yposition Zposition Zrotation Xrotation Yrotation 
					JOINT UpperArm_R
					{
						OFFSET -5.34813 0.0 0.0
						CHANNELS 6 Xposition Yposition Zposition Zrotation Xrotation Yrotation 
						JOINT LowerArm_R
						{
							OFFSET -24.3289 0.000322201 0.0
							CHANNELS 6 Xposition Yposition Zposition Zrotation Xrotation Yrotation 
							JOINT Hand_R
							{
								OFFSET -22.2915 -0.000108084 0.0
								CHANNELS 6 Xposition Yposition Zposition Zrotation Xrotation Yrotation 
								End Site
								{
									OFFSET 0.0 0.0 0.0
								}
							}
						}
					}
				}
			}
		}
		JOINT UpperLeg_L
		{
			OFFSET -2.19248 -6.46944 0.0
			CHANNELS 6 Xposition Yposition Zposition Zrotation Xrotation Yrotation 
			JOINT LowerLeg_L
			{
				OFFSET 39.0811 0.0 -1.23785e-05
				CHANNELS 6 Xposition Yposition Zposition Zrotation Xrotation Yrotation 
				JOINT Foot_L
				{
					OFFSET 40.9854 0.0 -1.26872e-05
					CHANNELS 6 Xposition Yposition Zposition Zrotation Xrotation Yrotation 
					JOINT Toes_L
					{
						OFFSET 11.7543 0.0 0.0
						CHANNELS 6 Xposition Yposition Zposition Zrotation Xrotation Yrotation 
						End Site
						{
							OFFSET 0.0 0.0 0.0
						}
					}
				}
			}
		}
		JOINT UpperLeg_R
		{
			OFFSET -2.19251 6.46944 0.0
			CHANNELS 6 Xposition Yposition Zposition Zrotation Xrotation Yrotation 
			JOINT LowerLeg_R
			{
				OFFSET -39.0811 -0.00228153 -0.0401928
				CHANNELS 6 Xposition Yposition Zposition Zrotation Xrotation Yrotation 
				JOINT Foot_R
				{
					OFFSET -40.9854 0.0 0.0
					CHANNELS 6 Xposition Yposition Zposition Zrotation Xrotation Yrotation 
					JOINT Toes_R
					{
						OFFSET -11.7543 0.0 0.0
						CHANNELS 6 Xposition Yposition Zposition Zrotation Xrotation Yrotation 
						End Site
						{
							OFFSET 0.0 0.0 0.0
						}
					}
				}
			}
		}
	}
}
MOTION
Frames:	4
Frame Time:	0.0333333
0.000000 0.000000 0.000000 0.000000 0.000000 -0.000000 -1.362860 89.886800 -5.504500 88.373800 -2.250930 13.773800 15.735700 0.000005 -0.000001 87.442900 74.993000 -88.447300 8.984550 -0.406207 -0.000000 22.210700 -1.428350 -1.737420 16.377300 -0.000001 -0.000001 10.047200 -4.243090 1.433510 6.456720 -0.000001 -0.000000 -5.456250 -2.722920 -3.098370 12.994200 -0.242716 4.980390 -91.176100 5.799180 -78.514800 5.348090 -0.000007 -0.000001 -49.852600 35.922400 -33.671400 24.328600 0.000019 0.000005 7.694340 19.973600 -21.579700 22.291600 -0.000001 0.000005 7.848740 5.271800 0.849517 12.994500 -0.242716 -4.980390 89.194900 4.011280 -78.641000 -5.348130 -0.000001 -0.000004 -70.312300 -11.457800 -62.987400 -24.328900 0.000322 -0.000009 18.256300 -8.271560 -113.563000 -22.291500 -0.000108 -0.000004 30.720200 5.284600 0.500079 -2.192480 -6.469440 -0.000000 -172.962000 -13.195400 -3.730730 39.081100 -0.000007 -0.000012 -0.178650 0.235257 37.212700 40.985400 -0.000006 -0.000013 0.413769 4.327360 -69.318000 11.754300 -0.000000 0.000003 -0.000172 -0.001628 -16.639200 -2.192510 6.469440 -0.000001 175.092000 21.739100 178.366000 -39.081100 -0.002282 -0.040193 -0.197555 0.280889 35.566100 -40.985400 0.000008 0.000006 4.479700 12.675100 -69.756900 -11.754300 -0.000006 -0.000006 -0.004394 -0.055478 -18.830000
0.000000 0.000000 0.000000 0.000000 0.000000 -0.000000 -1.354300 89.890600 -5.424190 88.363000 -2.264450 13.745300 15.735700 0.000005 -0.000001 87.432900 75.040000 -88.445800 8.984550 -0.406207 -0.000000 22.116500 -1.429890 -1.755270 16.377300 -0.000001 -0.000001 9.717560 -4.212860 1.450350 6.456720 -0.000001 -0.000000 -5.611030 -2.656110 -3.151350 12.994200 -0.242716 4.980390 -91.171900 5.798410 -78.553400 5.348090 -0.000007 -0.000001 -49.844900 35.901900 -33.670800 24.328600 0.000019 0.000005 7.689760 20.008800 -21.534800 22.291600 -0.000001 0.000005 7.811600 5.272700 0.824948 12.994500 -0.242716 -4.980390 89.197500 3.998380 -78.641400 -5.348130 -0.000001 -0.000004 -70.333900 -11.525400 -63.107300 -24.328900 0.000322 -0.000009 18.335600 -8.274320 -113.473000 -22.291500 -0.000108 -0.000004 30.670700 5.280610 0.609559 -2.192480 -6.469440 -0.000000 -172.944000 -13.200200 -3.691580 39.081100 -0.000007 -0.000012 -0.181831 0.239594 37.195700 40.985400 -0.000006 -0.000013 0.412165 4.345060 -69.366200 11.754300 -0.000000 0.000003 -0.000185 -0.001735 -16.643200 -2.192510 6.469440 -0.000001 175.084000 21.742800 178.411000 -39.081100 -0.002282 -0.040193 -0.196455 0.279679 35.534400 -40.985400 0.000008 0.000006 4.471480 12.708800 -69.793000 -11.754300 -0.000006 -0.000006 -0.004313 -0.054655 -18.796500
0.000000 0.000000 0.000000 0.000000 0.000000 -0.000000 -1.351990 89.890100 -5.347030 88.377000 -2.250310 13.675700 15.735700 0.000005 -0.000001 87.398700 75.105400 -88.434900 8.984550 -0.406207 -0.000000 21.984700 -1.443590 -1.800840 16.377300 -0.000001 -0.000001 9.378640 -4.183180 1.459430 6.456720 -0.000001 -0.000000 -5.720120 -2.605840 -3.120350 12.994200 -0.242716 4.980390 -91.171600 5.798660 -78.557100 5.348090 -0.000007 -0.000001 -49.806400 35.915400 -33.682600 24.328600 0.000019 0.000005 7.666990 19.957400 -21.524400 22.291600 -0.000001 0.000005 7.880250 5.272400 0.833136 12.994500 -0.242716 -4.980390 89.194300 4.010730 -78.632100 -5.348130 -0.000001 -0.000004 -70.318100 -11.615200 -63.179700 -24.328900 0.000322 -0.000009 18.335800 -8.240820 -113.388000 -22.291500 -0.000108 -0.000004 30.680200 5.280550 0.610972 -2.192480 -6.469440 -0.000000 -172.960000 -13.215000 -3.702280 39.081100 -0.000007 -0.000012 -0.183471 0.241829 37.187300 40.985400 -0.000006 -0.000013 0.407073 4.352750 -69.415700 11.754300 -0.000000 0.000003 -0.000185 -0.001736 -16.643200 -2.192510 6.469440 -0.000001 175.069000 21.743600 178.397000 -39.081100 -0.002282 -0.040193 -0.198644 0.282719 35.536800 -40.985400 0.000008 0.000006 4.457810 12.707300 -69.848300 -11.754300 -0.000006 -0.000006 -0.004406 -0.055596 -18.834800
0.000000 0.000000 0.000000 0.000000 0.000000 -0.000000 -1.352720 89.896200 -5.266410 88.384300 -2.249040 13.636200 15.735700 0.000005 -0.000001 87.363300 75.167200 -88.421400 8.984550 -0.406207 -0.000000 21.860100 -1.457920 -1.843730 16.377300 -0.000001 -0.000001 9.084890 -4.179490 1.446650 6.456720 -0.000001 -0.000000 -5.824580 -2.539140 -3.094390 12.994200 -0.242716 4.980390 -91.167800 5.805030 -78.605400 5.348090 -0.000007 -0.000001 -49.877300 35.841300 -33.542800 24.328600 0.000019 0.000005 7.666530 19.904500 -21.573000 22.291600 -0.000001 0.000005 7.868710 5.272120 0.840683 12.994500 -0.242716 -4.980390 89.192000 4.028610 -78.649500 -5.348130 -0.000001 -0.000004 -70.310400 -11.668600 -63.255400 -24.328900 0.000322 -0.000009 18.319900 -8.204550 -113.316000 -22.291500 -0.000108 -0.000004 30.616200 5.280390 0.615543 -2.192480 -6.469440 -0.000000 -172.968000 -13.211100 -3.660860 39.081100 -0.000007 -0.000012 -0.184205 0.243117 37.150800 40.985400 -0.000006 -0.000013 0.393739 4.334960 -69.458700 11.754300 -0.000000 0.000003 -0.000185 -0.001730 -16.643000 -2.192510 6.469440 -0.000001 175.057000 21.735100 178.433000 -39.081100 -0.002282 -0.040193 -0.200121 0.285117 35.505500 -40.985400 0.000008 0.000006 4.450790 12.678500 -69.890500 -11.754300 -0.000006 -0.000006 -0.004163 -0.053127 -18.734300
